<svg width="45" height="45" viewBox="0 0 45 45" fill="none" xmlns="http://www.w3.org/2000/svg">
<path d="M0 22.177C0 9.9291 9.92886 0.000244141 22.1767 0.000244141C34.4246 0.000244141 44.3534 9.9291 44.3534 22.177C44.3534 34.4248 34.4246 44.3537 22.1767 44.3537C9.92886 44.3537 0 34.4248 0 22.177Z" fill="#3E74FF"/>
<path d="M16.4896 23.4297H18.8612V33.1934C18.8612 33.3861 19.0174 33.5423 19.2102 33.5423H23.2314C23.4242 33.5423 23.5803 33.3861 23.5803 33.1934V23.4757H26.3067C26.484 23.4757 26.6332 23.3427 26.6534 23.1666L27.0675 19.5721C27.0789 19.4732 27.0475 19.3742 26.9814 19.3C26.9151 19.2258 26.8204 19.1833 26.7209 19.1833H23.5805V16.9301C23.5805 16.2508 23.9462 15.9064 24.6676 15.9064C24.7704 15.9064 26.7209 15.9064 26.7209 15.9064C26.9137 15.9064 27.0699 15.7501 27.0699 15.5574V12.258C27.0699 12.0653 26.9137 11.9091 26.7209 11.9091H23.8911C23.8712 11.9081 23.8269 11.9065 23.7615 11.9065C23.2705 11.9065 21.5639 12.0029 20.2158 13.2431C18.7221 14.6175 18.9297 16.263 18.9793 16.5484V19.1832H16.4896C16.2968 19.1832 16.1406 19.3394 16.1406 19.5321V23.0807C16.1406 23.2735 16.2968 23.4297 16.4896 23.4297Z" fill="white"/>
</svg>
