<svg width="45" height="45" viewBox="0 0 45 45" fill="none" xmlns="http://www.w3.org/2000/svg">
<path fill-rule="evenodd" clip-rule="evenodd" d="M22.18 0C34.4297 0 44.36 9.93028 44.36 22.18C44.36 34.4297 34.4297 44.36 22.18 44.36C9.93028 44.36 0 34.4297 0 22.18C0 9.93028 9.93028 0 22.18 0ZM16.7714 9.4967H27.5892C31.6516 9.4967 34.9736 12.7777 34.9736 16.7857V27.5744C34.9736 31.5834 31.6516 34.8633 27.5893 34.8633L16.7714 34.8632C12.709 34.8632 9.38651 31.5833 9.38651 27.5743V16.7856C9.38651 12.7777 12.709 9.4967 16.7714 9.4967ZM22.1112 15.3313C26.0587 15.3313 29.2621 18.5348 29.2621 22.4824C29.2621 26.4304 26.0587 29.6334 22.1112 29.6334C18.1625 29.6334 14.9596 26.4304 14.9596 22.4824C14.9596 18.5348 18.1626 15.3313 22.1112 15.3313ZM22.1112 17.7467C24.7253 17.7467 26.847 19.8679 26.847 22.4824C26.847 25.097 24.7253 27.2185 22.1112 27.2185C19.4962 27.2185 17.3749 25.0968 17.3749 22.4824C17.3749 19.8679 19.4962 17.7467 22.1112 17.7467ZM29.0295 14.3401C29.6708 14.3401 30.1907 14.8601 30.1907 15.5007C30.1907 16.142 29.6708 16.662 29.0295 16.662C28.3887 16.662 27.8689 16.142 27.8689 15.5007C27.8689 14.8599 28.3888 14.3401 29.0295 14.3401ZM17.6554 11.5688H26.706C30.1045 11.5688 32.8839 14.3344 32.8839 17.7141V26.8101C32.8839 30.1897 30.1045 32.9549 26.706 32.9549L17.6554 32.9551C14.257 32.9551 11.4771 30.1899 11.4771 26.8102V17.714C11.4771 14.3344 14.257 11.5688 17.6554 11.5688Z" fill="url(#paint0_linear_567_658)"/>
<defs>
<linearGradient id="paint0_linear_567_658" x1="34.5" y1="42.5" x2="11.0659" y2="3.34522" gradientUnits="userSpaceOnUse">
<stop offset="0.0985782" stop-color="#F58529"/>
<stop offset="0.444128" stop-color="#DD2A7B"/>
<stop offset="0.78961" stop-color="#8134AF"/>
<stop offset="1" stop-color="#515BD4"/>
</linearGradient>
</defs>
</svg>
