<svg width="45" height="45" viewBox="0 0 45 45" fill="none" xmlns="http://www.w3.org/2000/svg">
<rect x="0.3125" y="0.000244141" width="44.3534" height="44.3534" rx="22.1767" fill="#2997FD"/>
<path d="M31.2642 13.2353L27.4341 29.0215C27.2539 29.765 26.4202 30.1481 25.7368 29.795L20.8926 27.2942L18.602 31.0417C17.9787 32.0631 16.4016 31.6201 16.4016 30.4258V26.2501C16.4016 25.9273 16.5367 25.6193 16.7696 25.394L26.21 16.3819C26.2024 16.2693 26.0822 16.1717 25.9622 16.2542L14.6971 24.0947L10.912 22.1421C10.0259 21.6839 10.0635 20.3997 10.9796 20.0017L29.6424 11.8685C30.536 11.4779 31.4971 12.2816 31.2642 13.2353Z" fill="white"/>
</svg>
