<svg width="45" height="45" viewBox="0 0 45 45" fill="none" xmlns="http://www.w3.org/2000/svg">
<path fill-rule="evenodd" clip-rule="evenodd" d="M22.18 45.0002C34.4297 45.0002 44.36 35.07 44.36 22.8202C44.36 10.5705 34.4297 0.640243 22.18 0.640243C9.93028 0.640243 0 10.5705 0 22.8202C0 35.07 9.93028 45.0002 22.18 45.0002ZM33.3846 27.3942C33.3846 27.3942 33.1613 28.9711 32.474 29.6635C31.603 30.5741 30.6278 30.58 30.182 30.6327C26.9832 30.8657 22.1788 30.8657 22.1788 30.8657H22.1704C22.1704 30.8657 17.3682 30.8657 14.1677 30.6327C13.7201 30.5783 12.7462 30.5745 11.8756 29.6635C11.1879 28.9711 10.9692 27.3942 10.9692 27.3942C10.9692 27.3942 10.7415 25.5439 10.7415 23.6895V21.9556C10.7415 20.1052 10.969 18.2511 10.969 18.2511C10.969 18.2511 11.1923 16.6742 11.8754 15.9806C12.746 15.0699 13.8901 15.0995 14.4008 15.0025C16.2321 14.8276 22.1803 14.7749 22.1803 14.7749C22.1803 14.7749 26.9888 14.7834 30.1875 15.0122C30.6351 15.065 31.6086 15.0705 32.4796 15.9815C33.1673 16.6738 33.3902 18.2525 33.3902 18.2525C33.3902 18.2525 33.6179 20.1029 33.6179 21.9571V23.6909C33.6133 25.5413 33.3857 27.3954 33.3857 27.3954L33.3845 27.3942L33.3844 27.3943L33.3846 27.3942ZM19.8092 19.852V26.2814L25.989 23.0559L19.8092 19.852Z" fill="#FF0000"/>
</svg>
